<?xml version="1.0" encoding="UTF-8"?>
<svg id="Capa_2" data-name="Capa 2" xmlns="http://www.w3.org/2000/svg" viewBox="0 0 1052 643.65">
  <defs>
    <style>
      .cls-1 {
        fill: #fff;
      }

      .cls-2 {
        fill: #078b91;
      }

      .cls-3 {
        fill: #fef51f;
      }

      .cls-4 {
        fill: #ff0;
      }
    </style>
  </defs>
  <g id="Capa_1-2" data-name="Capa 1">
    <g>
      <g>
        <path class="cls-1" d="M473.46,627.45c-11.2-2.5-34.51-7.71-50.41-28.44l-.63-.81c-3.45-4.45-10.64-13.73-10.17-27.92.2-6.03,1.73-11.17,3.82-15.46-3.52,1.11-7.23,1.69-10.95,1.69-6.42,0-12.03-1.64-18.47-4.09-1.35-.52-6.01-2.33-9.11-3.91-4.94-2.52-11.01-6.8-16.24-11.44-1.53-1.36-4.19-3.72-7.01-7.06-15.03,12.53-29.57,22.55-43.33,29.85-20.26,10.75-29.45,12.91-37.71,12.91-1.21,0-2.44-.06-3.65-.17-11.69-1.11-23.26-6.71-35.37-17.12-7.68-6.6-14.86-14.62-19.22-21.46l-.25-.37c-1.38-2.06-4.26-6.36-6.14-12.36-.48-1.55-.87-3.13-1.17-4.73-8.17-7.1-14.28-14.83-18.79-20.94l-14.68-19.89,13.56-20.67c17.95-27.35,34.61-55.56,49.65-84.04-9.68,8.67-20.49,17.38-32.73,26.37-34.03,24.98-70.05,44.5-107.07,58.02l-10.64,3.88-10.92-3c-16.61-4.56-29.12-12.84-40.15-20.15-3.14-2.08-6.1-4.04-8.93-5.75l-16.14-9.77-.93-18.84c-2.37-47.94,20.14-89.72,37.28-116.97,19.21-30.56,42.09-56.89,61.05-77.26-4.64-6.6-9.53-15.29-12.63-25.64-.94-3.15-2.07-7.94-2.86-12.19-1.61-8.62-2.57-17.93,1.31-27.66,2.91-7.28,8.49-15.87,15.98-26.51,14.22-20.21,35.45-42.18,56.78-58.77,19.49-15.15,49.36-33.86,80.96-36.92,1.27-.12,2.58-.19,3.88-.19,14.34,0,28.91,8.27,38.6,15.2,13.47,9.64,24.85,22.94,33.31,38.85,5.2-2.82,11.06-4.32,17.09-4.32,10.94,0,18.88,4.74,24.17,8.77,1.76.66,3.44,1.41,5.04,2.24,6.24-5.4,14.07-9.9,24.78-10.13l6.76-.15,6.34,2.35c7.56,2.8,14.71,6.18,21.39,10.11.87-2.45,1.77-5.03,2.72-7.78l7.73-22.5,23.75-1.4c1.93-.11,3.88-.17,5.8-.17,23.91,0,45.49,8.41,60.76,23.67l1.38,1.38,1.22,1.53c4.1,5.11,6.65,10.96,7.66,16.99l3.26-6.31,7.37-.49c10.72-23.77,25.69-43.7,40.15-62.12l12.13-15.44,19.53,2.07c20.64,2.19,37.41,7.53,52.78,16.82,3.02,1.83,5.41,3.7,7.19,5.17l58.62,20.53-19.44,14.74c2.2-.38,4.44-.57,6.72-.57,8.45,0,14.73,2.7,17.41,3.86l.07.03c11.96,4.65,22.87,12.11,33.11,22.7,11.73-14.85,23.63-27.81,36.17-39.43l10.7-9.91,14.57.47c18.64.6,35.4,5.02,49.83,13.14,1.78,1,3.46,1.99,5.06,3.01l11.61-23.66,28.2,7.56c26.27,7.04,47.71,20.85,62.01,39.94l3.78,5.04c8.28,1.85,14.82,6.07,20.22,9.55l.24.15,14.75,4.71,5.18,18.38c3.29,11.68.84,23.75-6.71,33.16-3.24,4.57-7.05,9.09-10.43,13.08l-.08.1c-1,1.19-1.96,2.32-2.83,3.38-43.35,52.65-93.33,103.39-148.56,150.81l-77.05,122.8-19.07-3.83c.46,4.56.68,9.18.68,13.82,0,22.19-3.98,42.92-11.84,61.61-7.86,18.7-18.85,35.04-32.66,48.57-13.73,13.46-29.91,24.02-48.09,31.38-18.1,7.33-37.44,11.04-57.49,11.04-11.11,0-21.84-1.21-31.9-3.61-9.76-2.32-19.05-5.58-27.61-9.67-8.44-4.03-16.32-8.8-23.4-14.16-3.36-2.54-6.57-5.18-9.59-7.88l-36.6,58-24.42-5.46Z"/>
        <path class="cls-1" d="M607.05,20l14.3,1.51c19.2,2.03,34.73,6.96,48.86,15.51,3.12,1.89,5.47,3.86,7.18,5.3.05.04.11.09.16.14l43.55,15.25-38.58,29.25c-1.33,1.01-2.66,2.02-3.97,3.02,5.73,2.84,10.85,6.27,15.54,9.82,4.9-5.01,9.99-9.9,15.31-14.63l2.65-2.35,3.18-1.56c4.07-1.99,8.43-3,12.97-3,6.5,0,11.33,2.08,13.66,3.08l.24.1c13.55,5.23,25.75,14.67,37.21,28.82,13.65-18.26,27.57-33.91,42.11-47.38l7.83-7.26,10.67.34c17.1.55,32.4,4.56,45.48,11.92,5.89,3.31,9.66,5.99,12.97,9.66l4.02-8.19,9.42-19.19,20.65,5.53c24.19,6.48,43.86,19.09,56.87,36.46l6.05,8.07c8.13.9,14.62,5.08,20.41,8.81.38.25.86.55,1.3.83l11.07,3.54,3.79,13.46c2.47,8.78.55,17.89-5.15,24.85-3.04,4.32-6.78,8.74-10.11,12.69-1.06,1.25-2.07,2.45-2.99,3.56-43.3,52.59-93.25,103.24-148.51,150.58l-64.79,103.26-9.54,15.2-17.6-3.53c-2.82-.57-5.62-1.22-8.4-1.94,1.77,8.38,2.67,17.1,2.67,26.07,0,20.92-3.73,40.41-11.1,57.93-7.37,17.52-17.64,32.82-30.55,45.47-12.84,12.59-27.99,22.47-45.01,29.36-16.96,6.87-35.1,10.35-53.92,10.35-10.37,0-20.36-1.13-29.7-3.35-9.11-2.17-17.76-5.2-25.71-9-7.87-3.76-15.2-8.19-21.77-13.17-6.32-4.78-12.02-9.88-16.97-15.18l-.13-.14-29.51,46.77-9.78,15.5-17.88-4c-10.88-2.43-31.14-6.96-44.94-24.96-.23-.3-.45-.58-.65-.85-2.99-3.85-8.55-11.02-8.18-21.79.46-13.59,9.88-21.32,13.43-24.23.74-.61,1.5-1.2,2.28-1.79l-.04-.02c-4.04-1.63-8.36-3.56-12.61-6.13l-2.15,2.89-5.35,2.76c-3.73,1.92-7.94,2.94-12.19,2.94-4.99,0-9.47-1.33-15.08-3.47-.88-.34-5.43-2.09-8.17-3.49-4.2-2.15-9.66-6.01-14.26-10.09-2.36-2.09-7.84-6.96-11.4-14.11-16.71,14.76-33.7,27.13-49.7,35.62-20.52,10.89-27.92,11.8-33.25,11.8-.92,0-1.85-.04-2.76-.13-9.66-.92-19.49-5.78-30.07-14.87-7.01-6.02-13.51-13.26-17.4-19.36-.12-.19-.25-.38-.37-.56-1.22-1.82-3.5-5.21-4.96-9.9-.7-2.24-1.14-4.53-1.32-6.83-8.47-6.77-14.96-14.73-20.07-21.66l-10.75-14.57,9.93-15.14c21.33-32.5,40.63-65.8,57.72-99.51-3.77-2.24-7.31-4.84-10.65-7.84-12.21,12.14-26.57,24.23-43.71,36.82-33.3,24.45-68.53,43.55-104.71,56.75l-7.79,2.84-8-2.19c-15.14-4.15-26.98-11.99-37.42-18.91-3.22-2.14-6.27-4.15-9.26-5.96l-11.82-7.16-.68-13.8c-2.24-45.26,19.38-85.28,35.83-111.45,19.79-31.47,43.78-58.75,65.46-81.7-5.25-6.25-12.16-16.24-15.98-28.98-.84-2.81-1.9-7.32-2.63-11.21-1.56-8.33-2.02-15.33.8-22.39,2.56-6.42,7.82-14.47,14.93-24.57,23.98-34.09,78.64-86.64,130.88-91.69.97-.09,1.97-.14,2.96-.14,12.45,0,26.06,8.41,33.07,13.43,14.76,10.56,26.8,26.03,34.83,44.73l.46,1.07,2.82-2.58c4.87-4.46,11.2-6.91,17.82-6.91,8.76,0,15.04,4.1,19.54,7.71,1.61.53,3.53,1.28,5.53,2.36l1.28.69c1.42.76,2.91,1.56,4.43,2.41,7.51-7.85,14.34-12.09,23.41-12.28l4.95-.11,4.64,1.72c10.86,4.02,20.79,9.33,29.49,15.72,2.43-6.41,4.71-12.84,6.9-19.21l5.66-16.48,17.39-1.03c1.74-.1,3.5-.15,5.24-.15,21.37,0,40.56,7.42,54.04,20.89l1.01,1.01.89,1.12c7.78,9.71,7.99,23.09.67,33.08-2.8,4.33-5.88,8.56-9.07,12.67,3.04,2.31,6.02,4.81,8.88,7.54,1.07-1.83,2.12-3.59,3.15-5.28,2.36-3.85,4.77-7.27,7.1-10.57,2.66-3.78,5.18-7.34,6.83-10.54l6.74-13.03,7.79-.51,1.01-2.35c10.33-24.04,25.53-44.31,40.22-63l8.88-11.31M687.11,353.52c.21-.46.45-.92.68-1.37h-8.57c2.68.37,5.31.84,7.89,1.37M598.6,0l-6.49,8.26-8.88,11.31c-13.78,17.54-28.01,36.44-38.9,58.85-1.33-2.44-2.88-4.79-4.66-7.01l-.89-1.12-.65-.82-.74-.74-1.01-1.01c-17.07-17.06-41.03-26.45-67.47-26.45-2.11,0-4.25.06-6.36.19l-17.39,1.03-12.71.75-4.14,12.04-4.72,13.75c-4.12-1.99-8.38-3.8-12.76-5.42l-4.64-1.72-3.39-1.26-3.62.08-4.95.11c-10.64.23-18.99,3.83-25.68,8.46-5.32-3.8-15.03-9.36-28.11-9.36-4.45,0-8.82.64-12.99,1.89-8.59-13.92-19.4-25.71-31.89-34.64-10.82-7.75-27.27-16.98-44.13-16.98-1.6,0-3.22.08-4.8.23-26.8,2.59-56.49,16.03-85.86,38.87-22.04,17.13-43.99,39.86-58.72,60.8-8.1,11.51-13.77,20.29-17.03,28.46-4.79,12.01-3.61,23.38-1.83,32.93.85,4.55,2.07,9.72,3.1,13.17,2.5,8.34,6.04,15.7,9.74,21.89-18.18,19.86-39.16,44.69-57.11,73.23C21.09,308.1-2.32,351.64.19,402.26l.68,13.8.5,10.09,8.64,5.23,11.82,7.16c2.66,1.61,5.55,3.52,8.6,5.55,11.05,7.32,24.81,16.43,42.88,21.39l8,2.19,5.85,1.6,5.69-2.08,7.79-2.84c36.16-13.2,71.37-31.99,104.74-55.88-8.24,13.96-16.85,27.78-25.78,41.39l-9.93,15.14-7.26,11.06,7.85,10.65,10.75,14.57c4.05,5.48,9.99,13.09,17.82,20.33.22.85.46,1.69.72,2.53,2.29,7.33,5.81,12.59,7.32,14.84l.11.16.05.08c4.9,7.68,12.55,16.24,21,23.5,13.66,11.73,26.96,18.07,40.66,19.37,1.52.14,3.05.21,4.56.21,9.72,0,20.17-2.35,42.16-14.02,12.22-6.49,25-15,38.13-25.39.57.52,1.06.96,1.46,1.31,5.8,5.14,12.61,9.93,18.23,12.79,3.42,1.75,8.17,3.6,10.04,4.32,5.88,2.24,12.33,4.33,19.79,4.67-.15,1.32-.25,2.65-.3,3.99-.59,17.62,8.34,29.14,12.16,34.06l.6.77c17.99,23.46,43.58,29.18,55.87,31.93l17.88,4,13.07,2.92,7.15-11.33,9.78-15.5,17.46-27.68c.53.41,1.07.83,1.62,1.24,7.58,5.74,16.01,10.84,25.04,15.16,9.16,4.38,19.09,7.86,29.5,10.34,10.78,2.56,22.25,3.87,34.1,3.87,21.28,0,41.82-3.95,61.05-11.74,19.33-7.83,36.55-19.07,51.18-33.4,14.72-14.43,26.42-31.81,34.77-51.68,8.35-19.87,12.59-41.84,12.59-65.3,0-.7,0-1.4-.01-2.09l.6.12,12.86,2.58,6.97-11.11,9.54-15.2,63.26-100.82c55.21-47.51,105.21-98.32,148.61-151.04.82-1,1.73-2.08,2.68-3.2l.15-.18c3.44-4.08,7.33-8.68,10.77-13.5,9.22-11.65,12.31-27.08,8.26-41.45l-3.79-13.46-2.77-9.84-9.74-3.11-8.69-2.78c-4.95-3.18-11.16-7.04-18.92-9.38l-1.79-2.4c-15.59-20.81-38.81-35.82-67.16-43.42l-20.65-5.53-15.09-4.04-6.88,14.03-3.71,7.57c-14.91-7.62-31.88-11.78-50.51-12.38l-10.67-.34-7.8-.25-5.72,5.3-7.83,7.26c-10.57,9.79-20.69,20.51-30.62,32.44-8.93-7.75-18.4-13.55-28.61-17.53-.8-.34-1.85-.8-3.15-1.29l14.64-11.1-33.39-11.7-40.36-14.14c-1.83-1.45-4.17-3.18-6.97-4.87-16.61-10.04-34.62-15.81-56.69-18.14l-14.3-1.51-10.45-1.11h0Z"/>
      </g>
      <path class="cls-2" d="M1029.34,128.12l-2.92-10.36-8.73-2.79c-.6-.38-1.4-.89-1.99-1.27-6.11-3.94-12.43-8.01-20.3-8.03l-7.71-10.3c-12.2-16.28-30.74-28.13-53.62-34.26l-15.89-4.26-7.24,14.77-8.41,17.14c-4.99-8.14-8.23-11.14-16.91-16.02-12.23-6.88-26.61-10.63-42.73-11.15l-8.21-.26-6.03,5.58c-15.93,14.76-31.11,32.19-46.04,52.92l-2.79-3.61c-11.42-14.78-23.47-24.46-36.83-29.59-.12-.05-.23-.1-.35-.15-1.96-.84-6.02-2.59-11.28-2.59-3.62,0-7.1.8-10.33,2.39l-2.45,1.2-2.04,1.81c-6.56,5.83-12.78,11.92-18.73,18.2-7.83-6.29-16.85-12.7-28.1-16.22,4.01-3.12,8.12-6.26,12.34-9.46l29.67-22.5-34.02-11.92c-.31-.26-.7-.58-1.02-.85-1.56-1.31-3.7-3.11-6.42-4.76-13.35-8.07-28.09-12.74-46.39-14.67l-11-1.16-6.83,8.7c-14.44,18.38-29.37,38.28-39.42,61.66l-2.46,5.72-8.08.53-5.18,10.02c-1.84,3.56-4.47,7.29-7.26,11.24-2.28,3.23-4.63,6.56-6.89,10.25-2.25,3.67-4.6,7.72-7.02,12.11-5.67-6.48-12.13-11.82-18.75-16.3,4.51-5.55,8.92-11.34,12.75-17.28,5.92-7.91,5.79-18.19-.4-25.92l-.69-.86-.78-.78c-12.35-12.34-30.03-19.14-49.8-19.14-1.62,0-3.27.05-4.89.14l-13.38.79-4.36,12.68c-3.08,8.96-6.34,18.03-9.94,27.02-9.6-8.28-21.18-15.03-34.21-19.85l-3.57-1.32-3.81.08c-7.57.16-13.4,3.66-22.36,13.91-2.93-1.79-5.8-3.33-8.44-4.74l-1.29-.69c-2.07-1.11-4.03-1.81-5.59-2.27-4-3.3-9.3-7.09-16.64-7.09-5.13,0-10.02,1.9-13.78,5.35l-3.71,3.4-1.66,4.75c-1.93,5.54-5.12,11.27-8.5,17.35-2.01,3.61-4.08,7.35-6.05,11.3-12.45,25.08-24.99,53.13-36.43,81.45-7.04-8.64-15.61-16.11-24.2-23.03-8.42-6.78-17.83-13.27-28.37-19.56,4.83-2.42,9.73-4.82,14.72-7.27,8.94-4.38,18.18-8.91,27.25-13.69,1.84-.97,3.71-1.94,5.58-2.91,15.08-7.81,32.17-16.67,45.08-31.15l8.47-9.5-5.02-11.7c-7.6-17.7-18.95-32.29-32.81-42.22-2.43-1.74-6.6-4.43-11-6.74-7.34-3.85-13.07-5.57-18.58-5.57-.79,0-1.58.04-2.36.11-27.96,2.71-55.24,19.96-73.21,33.97-20.43,15.92-39.89,36.05-53.37,55.21-6.86,9.75-11.91,17.45-14.26,23.34-2.29,5.74-1.88,11.55-.47,19.06.8,4.25,1.84,8.47,2.48,10.59,2.81,9.39,8.2,19.06,15.15,27.24l3.14,3.69c-22.42,23.52-47.8,51.84-68.44,84.68-16.02,25.48-37.07,64.39-34.92,107.96l.53,10.62,9.09,5.5c3.09,1.87,6.18,3.92,9.46,6.09,10.07,6.67,21.47,14.22,35.69,18.12l6.15,1.69,5.99-2.19c35.65-13.01,70.37-31.84,103.21-55.95,18.92-13.89,34.37-27.14,47.24-40.51,1.01,1.1,1.95,2.11,2.59,2.72,4.91,4.68,10.19,8.35,16.07,11.15-17.83,35.69-38.14,70.95-60.69,105.3l-7.64,11.64,8.27,11.21c5.29,7.17,12.11,15.49,21.14,22.18-.19,8.15,3.79,14.08,5.36,16.42.15.22.3.44.45.68,3.59,5.63,9.66,12.37,16.25,18.03,9.61,8.25,18.35,12.65,26.73,13.45.72.07,1.46.1,2.2.1,3.33,0,9.52,0,30.44-11.1,17.5-9.29,36.46-23.37,55.42-40.99,1.14,9.19,7.54,15.91,12.48,20.29,4.18,3.71,9.28,7.33,13.01,9.23,1.92.98,5.28,2.35,7.58,3.23,5.88,2.24,9.39,3.07,12.95,3.07,3.35,0,6.53-.77,9.45-2.28l4.11-2.12,2.76-3.71,1.98-2.66c5.29,4,11.02,6.64,16.24,8.75l10.7,4.32c-4.06,2.38-7.98,4.9-11.38,7.69-3.25,2.67-10.88,8.92-11.24,19.79-.29,8.6,4.23,14.43,6.93,17.91.21.28.44.56.67.87,11.51,15.01,27.45,19.61,41.49,22.75l13.76,3.08,7.52-11.92,32.02-50.74c.76-.65,1.5-1.3,2.26-1.96l.17.18,4.65,4.99c4.71,5.05,10.16,9.92,16.2,14.49,6.25,4.73,13.23,8.95,20.73,12.54,7.57,3.62,15.82,6.51,24.51,8.57,8.88,2.11,18.41,3.19,28.31,3.19,18.05,0,35.43-3.33,51.67-9.91,16.29-6.6,30.78-16.05,43.06-28.09,12.33-12.09,22.16-26.72,29.22-43.51,7.06-16.79,10.63-35.49,10.63-55.61,0-12.19-1.75-23.89-5.16-34.83,5.87,1.97,11.93,3.59,18.07,4.82l13.54,2.72,7.34-11.7,65.27-104.04c55.27-47.29,105.21-97.88,148.47-150.43.93-1.13,1.96-2.35,3.03-3.62,3.3-3.9,6.99-8.28,9.9-12.44,4.63-5.52,6.15-12.57,4.17-19.61ZM777.14,293.9c.86.34,1.7.7,2.57,1.03-.55.77-1.1,1.53-1.65,2.29-.47.28-.95.56-1.42.84l.51-4.16ZM379.54,350.52c-3.9,8.44-8.72,17.38-14.51,26.94-19.91,32.87-46.64,63.47-73.54,84.58,21.2-43.29,49.71-79.31,88.05-111.52ZM365.54,281.3c2.9,0,5.67-.57,8.27-1.69-9.48,7.14-18.12,14.48-26.1,22.16-2.96,2.85-5.6,5.46-7.94,7.87-5.97-4.45-13.26-8.65-22.08-11.47,3.83-11.72,8.03-23.38,12.46-35.06,4.78,4.2,10.27,8.23,16.93,11.81l.45.24c7.46,4.07,12.29,6.14,18.01,6.14ZM381.18,274.21l17.8-18.53c2.04-1.83,4.05-3.67,6.05-5.54l7.2,8.79c.77.94,1.53,1.88,2.3,2.84-2.25-.49-4.47-.78-6.57-.78-2.9,0-5.68.48-8.26,1.42l-2.09.76-1.87,1.2c-5.06,3.25-9.91,6.53-14.57,9.84ZM457.44,372.15c8.94-24.29,12.35-45.74,10.15-63.76-.4-3.29-1.43-6.45-2.86-9.45l8.96-6.05c11.64-7.85,22.7-16.6,33.09-25.34,2.12,2.41,4.37,4.85,5.9,6.29,6.48,6.08,13.8,9.72,19.68,12.65.93.46,1.85.92,2.78,1.39l13.13,6.71,10.29-10.56c2.07-2.13,4.83-4.3,7.74-6.61,2.69-2.13,5.48-4.33,8.31-6.91.98-.9,1.97-1.8,2.96-2.72,1.01.97,2.01,1.89,2.68,2.46,6.09,5.12,12.28,8.47,18.1,11.17l-33.54,118.69-16.02-5.15-7.61,15.54c-.15.31-.3.61-.45.92-6.7-4.23-14.77-7.1-23.81-8.39l-14.2-2.02-6.47,12.8-.49.97c-6.34-4.04-14.02-6.69-23.15-8.01l-14.24-2.07-2.44,4.83c-.47-.25-.95-.5-1.44-.73-4.19-2.03-8.38-3.28-12.41-4.09,6.39-11.4,11.59-22.39,15.34-32.58ZM624.13,461.12l3.15-3.74,1.06-4.77c.49-2.21.6-4.45.36-6.65,8.61-2.28,16.59-3.43,23.81-3.43,5.56,0,8.94.85,10.79,1.56,1.98.76,3.57,1.73,4.57,2.78,1.07,1.12,1.93,2.65,2.57,4.54.97,2.89,1.47,6.36,1.47,10.32,0,7.54-1.01,14.47-3.02,20.61-1.82,5.57-4.34,10.32-7.51,14.13-2.82,3.39-6.34,6.09-10.46,8.03-4.09,1.93-9.06,2.91-14.77,2.91-6.21,0-9.24-.88-10.25-1.26-4.46-1.66-7.24-3.18-8.79-4.17-3.43-2.17-6.33-4.11-8.64-5.78-3.34-2.41-6.86-4.3-10.47-5.67,9.08-9.69,17.8-19.51,26.13-29.41ZM666.17,356.56l3.04-10.79h33.63c-4.56,4.65-7.48,9.27-8.63,14.48-8.7-2.28-18.08-3.53-28.05-3.69ZM464.09,534.57c1.95-1.85,3.85-3.74,5.72-5.65,1.08.93,2.19,1.81,3.35,2.65-3.36,2.28-8.46,5.1-11.9,7-1.1.61-2.21,1.22-3.32,1.84l6.14-5.84ZM213.65,245.88c-.53-1.39-1.09-2.76-1.68-4.09,3.75,2.48,7.25,5.1,10.39,7.87,1.82,1.6,2.98,2.72,3.72,3.48-.28.83-.72,1.99-1.41,3.58-7.27,16.64-28.01,39.4-58.39,64.09-10.18,8.27-21.33,16.62-32.51,24.4,4.13-5.88,8.61-11.94,13.47-18.22,15.7-20.32,34.88-42.97,58.02-56.86l14.34-8.61-5.94-15.64Z"/>
      <path class="cls-3" d="M245.89,492.64c16.03-.36,30.26-9.6,43.21-18.18,36.6-24.26,70.35-63.17,93.04-100.63,15.06-24.87,28.85-53.72,30.15-83.16-.92-.14-1.66.06-2.51.36-8.92,3.15-31,20.23-39.08,26.85-50.92,41.75-86.78,90.85-110.66,152.23-1.82,4.68-3.05,10.49-4.94,14.83-.98,2.25-6.78-.72-8.74-1.56-11.01-4.71-19.02-13.8-25.97-23.22,32.96-50.22,61.86-103.19,85.59-158.42,13.23,2.66,22.9,9.54,32.04,19.1.26,1.32-11.81,20.51-13.57,23.3-.44.7-2.06,1.79-.74,2.55,3.96-4.55,7.52-9.52,11.53-14.02,4.28-4.8,4.25-3.79,7.68-9.63,3.64-6.21,13.25-15.64,18.68-20.88,13.71-13.2,28.98-24.7,44.98-34.98,4.03-1.47,17.08,5.27,21.11,7.67,6.32,3.76,19.15,14.43,20.07,21.96,2.14,17.54-3.04,38.04-9.07,54.43-20.81,56.53-87.98,134.63-141.21,162.89-4.07,2.16-17.56,9.12-21.37,8.76-8.93-.85-23.3-14.93-27.99-22.31-1.73-2.71-3.54-4.56-2.22-7.95Z"/>
      <path class="cls-3" d="M537.32,495.46c19.01-19.42,38.78-39.27,55.36-60.88,1.81-2.36,3.58-4.68,4.7-7.48.76-.63,11.75,5.74,11.44,7.15-27.59,32.81-58.25,63.1-90.84,90.88l-33.63,53.3c-11.48-2.57-22.57-5.74-29.99-15.41-4.05-5.28-5.37-6.16.45-10.93,9.56-7.84,28.84-15.17,36.37-23.72,6.58-7.48,12.15-18.51,18.82-26.24l20.15-33.14c-10.15,13.54-21.77,25.72-33.4,37.95-8.62-2.22-16.96-7.9-20.9-16.11l16.39-35.43c-13.02,17.64-26.01,35.52-41.94,50.67-5.77-2.33-11.55-5.06-15.64-9.89s-3.64-4.66-1.79-10.39c3.52-10.88,9.57-20.78,14.31-31.11l-38.62,51.9c-.98.51-10.07-3.23-11.71-4.07-3.86-1.97-14.77-10.19-14.78-14.57,0-2.22,4.92-15.38,6.12-18.24,9.21-21.85,25.31-43.06,41.13-60.5,5.61.45,11.36,1.11,16.47,3.59,8.29,4.02,11.01,12.09,13.57,20.41l10.41-20.64c8.41,1.22,16.47,4,21.66,11.09-7.75,12.27-17,23.63-24.34,36.25-5.24,9.02-10.55,19.09-13.46,29.09,16.5-14.76,29.28-33.33,40.95-52.04l5.46-.26,14.09-27.88c9.09,1.29,18.7,5.11,23.81,13.16-7.6,10.86-14.99,22.06-21.49,33.63-5.43,9.66-12.15,21.9-15.62,32.31-.23.69-1.35,2.02-.36,2.5,12.12-11.75,22.82-25.94,32.42-39.83s18.6-29.62,26.27-45.31c9.33,3,18.36,5.67,23.83,14.56l-45.67,75.59ZM408.57,489.73c14.64-17.49,27.65-36.23,44.02-52.24.75-1.51-5.78-11.41-6.47-11.41-16.68,18.26-30.28,39.86-37.55,63.65ZM476.51,548.4c-3.03,1.42-6.57,3.44-9.24,5.42-1.5,1.11-4.55,3.45-5.06,5.3,5.82-1.11,10.59-6.34,14.3-10.72Z"/>
      <path class="cls-3" d="M266,267.88c-17.82,35.91-47.48,63.09-79.39,86.53-29.93,21.97-63.3,40.53-98.24,53.29-15.1-4.14-27.01-14.11-40.09-22.03-1.72-34.8,13.84-67.65,31.87-96.32,19.18-30.51,43.06-57.56,67.89-83.52,22.07-.4,39.27,13.06,46.9,33.16-25.27,15.17-45.67,38.63-63.55,61.78-19.29,24.97-37.88,52.99-48.88,82.68,1.12,1.05,12.6-5.08,14.58-6.11,43.03-22.39,126.44-82.08,145.89-126.6,6.47-14.81,4.15-19.91-7.43-30.09-23.8-20.93-61.97-33.67-91.81-43.27-4.87-5.72-9.06-12.78-11.22-20.01-.91-3.03-3.5-14.21-2.59-16.5,1.92-4.8,8.81-14.64,12.04-19.24,22.57-32.08,71.53-76.85,112.13-80.78,4.36-.42,14.51,5.78,18.38,8.55,11.81,8.45,20.4,20.63,26.07,33.84-11.88,13.33-29.37,21.41-45.05,29.68-24.91,13.12-50.98,24.24-74.97,39.03,20.16,9.38,40.78,20.78,58.14,34.76,30.69,24.71,40.15,41.38,29.3,81.18,9.47-19.07,15.83-40.77,23.84-60.88,11.37-28.54,24.3-57.9,37.95-85.41,5.12-10.31,11.71-20.05,15.51-30.95.9-.82,6.33,4.44,7.22,4.91,1.65.86,4.03,1.03,5.8,1.98,7.18,3.87,14.34,7.47,19.69,13.92-5.51,8.47-11.28,16.76-16.64,25.33-4.56,7.29-9.44,14.77-12.94,22.58l31.87-42.69c.05-4.61,17.45-25.17,20.03-25.22,14.64,5.42,28.1,14.01,37.76,26.32l-5.13,23.46-9.19,23.6c21.94-27.09,35.32-60.05,46.57-92.8,14.06-.83,29.21,3.02,39.37,13.17.75.93.03,1.28-.4,1.95-7.58,11.9-18.16,23.61-27.35,34.35,15,7.05,30.18,16.02,39.48,30.11-17.54,27.7-37.46,54.37-49.64,85.05,1.53,1.18,12.92-8.16,14.85-9.74,8.64-7.06,33.58-27.93,39.03-35.92,4.8-7.03,9.91-22.58,14.16-31.13,4.79-9.63,10.35-20.18,15.96-29.32,4.73-7.72,10.7-14.7,14.87-22.76,12.72-.84,25.73,3.71,34.51,12.92-21.89,34.74-43,71.18-53.34,111.28,2.73-1.33,5.54-3.47,7.82-5.45,16.89-14.72,32.01-33.71,48.77-48.82,14.41-28.61,29.93-56.71,48.16-83.07,12.94.87,22.55,7.79,32.17,15.64l.13,1.03c-16.09,27.29-31.33,55.15-44.53,83.97,28.34-35.67,53.17-74.58,87.47-105.03,2-.98,4.06.32,5.97,1.05,11.68,4.47,20.74,13.49,28.21,23.16-13.06,20.91-25.12,42.61-35.65,64.92-5.64,11.94-12,25.36-15.97,37.91-.17.54-1.42,3.83.62,2.97.61-.26,8.97-7.47,10.16-8.59,12.12-11.38,35.25-33.17,44.9-45.67,6.03-7.81,11.89-20.38,17.63-29.21,16.29-25.06,34.6-48.84,56.56-69.19,11.6.37,23.39,2.87,33.57,8.59,6.05,3.4,6.73,4.12,10.27,10.03,5.95,9.93,10.98,21.4,16.27,31.75l1.75-.99,24.8-50.54c16.55,4.43,32.39,13.05,42.79,26.93l-91.98,144.06c40.49-39.7,80.64-80.29,114.91-125.59,2.47-1.42,12.58,6.78,15.47,7.71.33,1.17-.34,1.3-.77,1.95-3.21,4.78-8.71,10.95-12.52,15.59-44.48,54.02-95.12,104.59-148.35,149.92l-66.9,106.63c-26.27-5.27-54.01-19.34-67.83-43.03.82-4.3,13.2-13.02,17.07-15.74,19.15-13.47,40.98-24.43,61.03-36.56,23.25-31.69,43.84-65.05,65.1-98.09l21.99-36.95-83.13,102.05c-13.62-4.16-27.06-10.29-37.9-19.66-2.71-2.35-14.85-14.83-15.46-17.39-1.04-4.33,6.29-20.42,8.44-25.16l-19.55,18.31c-7.43,8.38-16.73,15.16-25.5,22.16-14.05-3.39-23.72-14.14-33.44-24.1,4.25-15.69,11.79-30.74,18.24-45.79l25.12-49.44c-20.78,23.43-40.78,47.67-59.66,72.68-13.83,18.33-27.64,37.01-39.1,56.91-8.59-3.89-16.48-6.67-23.83-12.86-1.21-1.01-8.68-8.32-9-9.02-.94-2.1,4.9-15.62,6.66-18.32-1.47-1.34-2.71,1.92-3.88,3.15-7.59,7.97-17.6,17.52-25.78,24.97-5.45,4.97-11.74,9.04-16.91,14.34-6.23-3.18-12.72-5.99-17.87-10.82-2.37-2.22-12.49-13.64-12.86-16.09-.45-3.02,1.65-5.95,1.17-8.91-16.77,14.76-33.64,29.55-52.17,42.06-2.56-2.32-5.97-2.84-8.88-4.44-11.38-6.25-17.92-15.86-25.93-25.63,17.55-27.09,36.15-53.55,51.13-82.23l-.04-.83-12.89-10.92c-.47,1.79-1.99,3.65-3.16,5.05-24.47,29.21-49.25,58.54-77.66,83.96l-19.16,19.95c-1.25.62-7.76-3.06-9.36-3.93-9.45-5.09-15.94-11.24-23.03-19.14-2.42-2.7-6.45-9.14-8.56-10.96-.68-.59-.86-1.01-1.96-.76-15.21,38.17-29.96,76.7-38.27,117.12-8.94-1.72-16.08-5.02-22.66-11.3-.96-.91-7.47-8.23-7.64-8.78-.38-1.27-.14-2.3.03-3.54,1.63-11.57,8.36-26.42,11.53-38.06ZM252.73,86.74c-27.05,3.73-52.39,18.21-70.67,38.24l-10.53,14.06c.43.41,9.21-4.92,10.39-5.61,18.08-10.62,38.25-22.53,55.44-34.35,5.4-3.71,10.78-7.66,15.37-12.34ZM875,96.89c-1.14-.31-1.3.31-1.96.76-6.2,4.27-18.68,19.73-23.76,26.21-26.59,33.86-45.96,75.4-57.8,116.7,16.47-20.09,32.06-40.89,49.56-60.13,16.47-18.11,34.45-34.81,51.57-52.29-4.1-11.36-11.52-20.97-17.61-31.24ZM401.07,114.85c-26.34,25.71-48.04,55.72-69.36,85.61-.4,2.03,15.01,22.14,16.66,22.12,6.64-11.83,15.15-22.47,22.1-34.1,13.47-22.55,24.8-47.96,30.59-73.63ZM764.92,332.69l-25.4,16.37-4.27,5.48c7.29,1,13.29-5.56,18.37-10.13,4-3.59,7.69-7.76,11.3-11.72Z"/>
      <path class="cls-3" d="M669.96,51.87c-19.19,14.55-38.22,29.3-54.57,47.12l-30.41-8.79c9.08-21.12,22.71-39.3,36.78-57.2,13.71,1.45,26.32,4.75,38.15,11.9,3.51,2.12,6.17,5.61,10.06,6.97Z"/>
      <path class="cls-4" d="M620.6,262.29l-40.83,144.52,31.8,9.49,2.31-.77c13.94-4.65,26.94-7,38.64-7,6.93,0,12.97.97,17.97,2.89,4.81,1.85,8.81,4.43,11.89,7.66,3.09,3.25,5.46,7.27,7.04,11.94,1.67,4.95,2.52,10.58,2.52,16.71,0,9.65-1.35,18.67-4,26.81-2.6,7.98-6.36,14.96-11.15,20.72-4.7,5.65-10.52,10.14-17.31,13.33-6.78,3.19-14.62,4.81-23.29,4.81-6.96,0-12.77-.85-17.26-2.53-4.86-1.81-9.06-3.83-12.49-6.01-3.76-2.38-7-4.55-9.64-6.46-4.12-2.97-8.35-4.47-12.58-4.47-6.33,0-11.95,2.78-16.25,8.05l-17.59,20.95,4.65,4.99c3.92,4.2,8.51,8.3,13.64,12.18,5.19,3.93,11,7.44,17.29,10.45,6.3,3.01,13.2,5.42,20.52,7.16,7.37,1.75,15.34,2.64,23.68,2.64,15.46,0,30.32-2.84,44.16-8.45,13.86-5.61,26.16-13.63,36.57-23.83,10.42-10.21,18.76-22.65,24.78-36.98,6.02-14.32,9.07-30.42,9.07-47.86,0-11.05-1.68-21.55-4.99-31.22-3.39-9.87-8.56-18.59-15.37-25.92-6.84-7.34-15.44-13.18-25.58-17.35-10.04-4.13-21.74-6.22-34.76-6.22-7.84,0-16.15.69-24.82,2.07l14.89-52.85h70.67c9.73,0,17.28-2.38,22.42-7.07,5.08-4.63,8.1-10.62,8.98-17.8l3-24.6h-138.54Z"/>
    </g>
  </g>
</svg>